<?xml version="1.0" standalone="no"?>
<!DOCTYPE svg PUBLIC "-//W3C//DTD SVG 1.1//EN" "http://www.w3.org/Graphics/SVG/1.1/DTD/svg11.dtd" >
<!--
2013-9-30: Created.
-->
<svg>
<metadata>
Created by iconfont
</metadata>
<defs>

<font id="iconfont" horiz-adv-x="1024" >
  <font-face
    font-family="iconfont"
    font-weight="500"
    font-stretch="normal"
    units-per-em="1024"
    ascent="896"
    descent="-128"
  />
    <missing-glyph />
    
    <glyph glyph-name="x" unicode="x" horiz-adv-x="1001"
d="M281 543q-27 -1 -53 -1h-83q-18 0 -36.5 -6t-32.5 -18.5t-23 -32t-9 -45.5v-76h912v41q0 16 -0.5 30t-0.5 18q0 13 -5 29t-17 29.5t-31.5 22.5t-49.5 9h-133v-97h-438v97zM955 310v-52q0 -23 0.5 -52t0.5 -58t-10.5 -47.5t-26 -30t-33 -16t-31.5 -4.5q-14 -1 -29.5 -0.5
t-29.5 0.5h-32l-45 128h-439l-44 -128h-29h-34q-20 0 -45 1q-25 0 -41 9.5t-25.5 23t-13.5 29.5t-4 30v167h911zM163 247q-12 0 -21 -8.5t-9 -21.5t9 -21.5t21 -8.5q13 0 22 8.5t9 21.5t-9 21.5t-22 8.5zM316 123q-8 -26 -14 -48q-5 -19 -10.5 -37t-7.5 -25t-3 -15t1 -14.5
t9.5 -10.5t21.5 -4h37h67h81h80h64h36q23 0 34 12t2 38q-5 13 -9.5 30.5t-9.5 34.5q-5 19 -11 39h-368zM336 498v228q0 11 2.5 23t10 21.5t20.5 15.5t34 6h188q31 0 51.5 -14.5t20.5 -52.5v-227h-327z" />
    

    
    <glyph glyph-name="bangzhu" unicode="&#58884;" d="M895.8893 482.5093c-22.011 52.0407-53.5179 98.774-93.6463 138.9018-40.1274 40.1268-86.8627 71.6334-138.9055 93.6435-53.8907 22.7925-111.1282 34.3487-170.1216 34.3487-58.9934 0-116.231-11.5562-170.1216-34.3487-52.0438-22.0101-98.7791-53.5167-138.9065-93.6435-40.1284-40.1268-71.6354-86.8601-93.6463-138.9018-22.7915-53.8885-34.3481-111.1227-34.3481-170.1117 0-58.99 11.5566-116.2232 34.3481-170.1127 22.011-52.0417 53.5179-98.776 93.6463-138.9038 40.1284-40.1278 86.8637-71.6354 138.9065-93.6465 53.8917-22.7935 111.1282-34.3497 170.1216-34.3497 58.9934 0 116.231 11.5562 170.1216 34.3497 52.0428 22.0111 98.7781 53.5187 138.9065 93.6465 40.1274 40.1278 71.6344 86.8621 93.6453 138.9038 22.7925 53.8895 34.3481 111.1227 34.3481 170.1127C930.2384 371.3866 918.6818 428.6208 895.8893 482.5093zM493.2158-86.9237c-220.1917 0-399.3296 179.1345-399.3296 399.3213 0 220.1827 179.1389 399.3133 399.3296 399.3133s399.3286-179.1315 399.3286-399.3133C892.5454 92.2109 713.4076-86.9237 493.2158-86.9237zM524.256 149.1183h-69.1439553004736c-2.9741 0-5.3846-2.4104-5.3846-5.3853v-68.76737571926233c0-2.975 2.4115-5.3853 5.3846-5.3853h69.1439553004736c2.9751 0 5.3846 2.4104 5.3846 5.3853v68.76737571926233C529.6406 146.7079 527.2312 149.1183 524.256 149.1183zM608.5174 542.6595c-30.0289 26.0453-69.8205 39.2524-118.2717 39.2524-45.7459 0-84.1044-13.4059-114.0114-39.846-29.9649-26.492-47.106-62.7784-50.9465-107.8509-0.1279-1.502 0.3798-2.989 1.3991-4.0992 1.0204-1.1102 2.4584-1.7418 3.9665-1.7418h65.40633616386361c2.6603 0 4.9219 1.9417 5.3236 4.5719 9.0852 59.5436 38.3975 88.489 89.6109 88.489 26.0574 0 47.2959-7.9036 63.1228-23.4911 16.0208-15.7903 23.8098-35.441 23.8098-60.0753 0-12.2557-2.9351-24.0497-8.7234-35.0522-5.8823-11.1714-21.6712-27.6702-46.9291-49.0398-26.3662-22.3079-44.7405-43.7623-54.6112-63.7678-10.0566-20.3712-14.9455-51.1024-14.9455-93.9513 0-2.974 2.4115-5.3843 5.3846-5.3843h59.05238363162666c2.9741 0 5.3846 2.4104 5.3846 5.3843 0 30.7152 2.9791 52.7822 8.8554 65.5915 5.8503 12.7623 22.4577 30.4783 49.3616 52.6543 28.0821 23.1483 47.5207 44.7646 57.7762 64.2484 10.3324 19.6317 15.5701 41.0971 15.5701 63.8017C654.1023 482.6692 638.7661 516.4173 608.5174 542.6595z"  horiz-adv-x="1000" />

    
    <glyph glyph-name="shanchu" unicode="&#58887;" d="M321.376 66.126c17.548 0 31.746 14.199 31.746 31.746v349.207c0 17.548-14.198 31.746-31.746 31.746s-31.746-14.201-31.746-31.746v-349.209c0-17.548 14.199-31.745 31.746-31.745zM511.854 66.126c17.549 0 31.746 14.199 31.746 31.746v349.207c0 17.548-14.199 31.746-31.746 31.746s-31.746-14.201-31.746-31.746v-349.209c-0.001-17.548 14.197-31.745 31.746-31.745zM702.332 66.126c17.548 0 31.746 14.199 31.746 31.746v349.207c0 17.548-14.199 31.746-31.746 31.746s-31.746-14.201-31.746-31.746v-349.209c0-17.548 14.198-31.745 31.746-31.745zM861.062 796.29h-131.481c-14.199 54.626-63.492 95.238-122.49 95.238h-190.478c-58.997 0-108.291-40.613-122.49-95.238h-131.479c-70.034 0-126.986-56.983-126.986-126.986v-31.747h31.746v-31.746h63.492v-603.18c0-70.003 56.951-126.986 126.986-126.986h507.94c70.036 0 126.986 56.982 126.986 126.986v603.181h63.492v31.746h31.746v31.747c0 70.002-56.949 126.983-126.986 126.983zM416.614 828.036h190.478c23.375 0 43.651-12.866 54.658-31.746h-299.791c11.007 18.88 31.281 31.746 54.657 31.746zM829.316 2.633c0-35.033-28.49-63.492-63.492-63.492h-507.94c-35.002 0-67.894 28.461-67.894 63.492l4.402 603.18h634.926v-603.18zM99.152 669.305c0 35.033 28.492 63.492 63.492 63.492h698.419c35.004 0 63.492-28.461 63.492-63.492h-825.405z"  horiz-adv-x="1024" />

    
    <glyph glyph-name="shuaxin" unicode="&#58883;" d="M702.2725 64.4073c-52.8855-37.5183-114.7638-56.3272-178.0214-55.4609-8.364 0.0881-16.6707 0.5274-24.875 1.2585-3.3536 0.3205-6.7092 0.8765-10.0782 1.3015-6.4604 0.8663-12.9352 1.7428-19.2215 2.9747-3.8973 0.7475-7.7046 1.7582-11.5128 2.6522-6.1676 1.4664-12.3075 2.945-18.3265 4.7606-2.901 0.9083-5.7272 1.9487-8.5985 2.9297-6.9437 2.3583-13.8588 4.7892-20.5967 7.6462-1.5227 0.6175-2.988 1.3455-4.5117 2.0367-7.852 3.5021-15.6457 7.1772-23.1465 11.308-0.3656 0.1915-0.6738 0.3523-1.0394 0.5407-25.4464 14.1527-48.7393 31.8188-69.1599 52.4605-0.3082 0.3205-0.6451 0.7035-0.981 1.0691-6.3437 6.4471-12.3935 13.185-18.1514 20.2158-1.2012 1.495-2.3736 3.1058-3.5891 4.6438-41.5601 52.6479-66.6255 119.2745-66.6255 191.7614h70.498304c1.8207 0 3.583 0.9759 4.5066 2.6911 0.9247 1.7152 0.77 3.7233-0.2314 5.2449L180.1073 504.4129c-0.9155 1.3896-2.4893 2.304-4.2762 2.304s-3.3618-0.9155-4.2762-2.304L53.0493 324.446c-1.0015-1.5217-1.1551-3.5297-0.2314-5.2449 0.9247-1.7152 2.686-2.6911 4.5076-2.6911h70.51264c0-85.2163 26.2369-164.2045 70.8147-229.5122 0.5427-0.9103 0.938-1.877 1.538-2.7863 4.6141-6.6785 9.7423-12.8461 14.6934-19.1601 1.8463-2.388 3.5748-4.8476 5.4938-7.1905 7.296-8.9661 15.0446-17.3896 23.0144-25.6225 0.7619-0.8202 1.4653-1.6251 2.2129-2.3583 26.75-27.1155 57.001-49.9702 89.9031-68.2373 0.8499-0.514 1.6998-1.0424 2.6368-1.5247 9.4781-5.1548 19.2195-9.814 29.0939-14.2244 2.4617-1.068 4.864-2.2702 7.3687-3.326 8.4388-3.5451 17.11-6.6499 25.856-9.6102 4.1308-1.4213 8.233-2.8713 12.4221-4.1738 7.6329-2.2856 15.4409-4.2045 23.3216-6.0938 5.2152-1.2308 10.3997-2.5641 15.7194-3.5891 2.2118-0.4547 4.2916-1.1438 6.4614-1.4797 7.4117-1.3332 14.8828-2.0797 22.3099-2.988 2.6808-0.3236 5.3176-0.7782 7.9995-1.0691 13.3458-1.3343 26.6465-2.2118 39.935-2.2118 81.3189 0 160.6605 25.1812 228.7196 73.4515 21.6832 15.4245 26.9722 45.6899 11.7801 67.6792C753.8964 74.5152 723.9537 79.8328 702.2725 64.4073M927.9171 316.51c-0.044 84.951-26.1202 163.7806-70.4778 228.9551-0.6451 1.1131-1.0854 2.2415-1.8156 3.2819-5.5081 7.9688-11.5313 15.3969-17.5206 22.8383-0.6881 0.9083-1.3322 1.8606-2.0654 2.7546-40.5955 49.8668-91.5589 88.3804-149.3217 113.5616-1.5985 0.7035-3.1642 1.4797-4.7749 2.1832-9.216 3.838-18.6655 7.2366-28.1559 10.4448-3.4284 1.1428-6.783 2.4023-10.284 3.4427-8.277 2.5344-16.6717 4.5998-25.1402 6.5782-4.6725 1.0988-9.345 2.2999-14.078 3.2369-2.3429 0.4547-4.5548 1.1571-6.869 1.5821-6.314 1.0988-12.6577 1.5821-18.986 2.4166-4.395 0.5571-8.6733 1.2452-13.097 1.6998-10.6353 0.9964-21.1845 1.4203-31.7307 1.6108-1.9343 0-3.7939 0.3082-5.7129 0.3082-0.3512 0-0.6728-0.1034-1.025-0.1321C445.6448 721.2142 366.4794 696.3832 298.5062 648.1723c-21.7395-15.3815-27.0285-45.6765-11.8221-67.6803 15.1767-22.0037 45.1635-27.3357 66.859-11.9091 52.5036 37.2234 113.7531 56.063 176.5704 55.4916 9.0388-0.0584 17.9313-0.512 26.7213-1.3476 2.7095-0.3082 5.3914-0.7178 8.0855-1.0547 7.2233-0.894 14.3862-1.9333 21.4456-3.3403 3.1212-0.6154 6.1983-1.4203 9.2426-2.1248 6.9304-1.5811 13.8455-3.2809 20.6131-5.3473 2.1381-0.6881 4.2465-1.4643 6.3857-2.1678 7.721-2.5631 15.3231-5.3176 22.7963-8.4675 0.7598-0.3215 1.538-0.7178 2.2702-1.025 44.7386-19.4836 83.9854-49.4715 114.603-87.0031 0.1915-0.2191 0.3799-0.513 0.5571-0.7322 43.0981-53.119 69.0432-121.0184 69.0719-194.9542h-70.528c-1.8207 0-3.583-0.9759-4.5066-2.6911s-0.77-3.7233 0.2324-5.2449l118.5321-179.9537c0.9155-1.3885 2.4893-2.304 4.2772-2.304 1.7869 0.001 3.3608 0.9165 4.2752 2.305l118.4768 179.9537c1.0025 1.5217 1.1561 3.5287 0.2314 5.2449-0.9236 1.7152-2.686 2.6911-4.5066 2.6911H927.917056L927.9171 316.51z"  horiz-adv-x="1024" />

    
    <glyph glyph-name="mima" unicode="&#58920;" d="M804 396 804 524c0 159.072-128.928 288-288 288-159.072 0-288-128.928-288-288l0-128c-53.024 0-96-42.976-96-96l0-224c0-159.072 128.928-288 288-288l192 0c159.072 0 288 128.928 288 288l0 224C900 353.056 856.992 396 804 396zM292 524c0 123.712 100.288 224 224 224s224-100.288 224-224l0-128-64 0L676 523.936c0 88.384-71.616 160-160 160-88.384 0-160-71.616-160-160L356 396l-64 0L292 524zM644 524l0-128-256 0L388 524c0 70.688 57.312 128 128 128S644 594.688 644 524zM836 204l0-128c0-123.488-100.512-224-224-224l-192 0c-123.488 0-224 100.512-224 224l0 224c0 17.664 14.336 32 32 32 21.344 0 42.656 0 64 0l448 0c21.312 0 42.624 0 64 0 17.632 0 32-14.336 32-32L836 204zM516 204c35.328 0 64-28.64 64-64 0-19.488-10.496-56.576-21.312-85.824-8.736-23.616-17.664-42.112-42.688-42.112-23.008 0-33.952 18.688-42.656 42.432-10.688 29.184-21.344 66.048-21.344 85.504C452 175.36 480.672 204 516 204z"  horiz-adv-x="1024" />

    
    <glyph glyph-name="mima1" unicode="&#58941;" d="M856.766278 365.826279l-567.325781 0.977618c-0.230119 76.526022-11.688172 201.244133 44.510191 267.112111C372.368141 678.945124 410.972469 723.968063 512.023884 722.961101 608.658258 725.512483 696.424571 643.375582 734.62426 544.887904c11.132181-28.408066 20.929983-43.71327 44.530268-44.528724 59.182183-1.791527 55.580595 60.637027 44.516369 89.045093C768.481041 731.59441 664.950831 812.000015 512.023884 812.000015c-103.934848 0-161.205039-21.331532-222.583387-89.038915C195.525848 619.491123 200.159108 452.193347 200.400038 366.803897l-33.107736-0.977618C136.349842 365.826279 111.354945 341.073856 111.354945 310.636422l0-467.336927c0-30.610409 25.042774-55.299511 55.937356-55.299511l689.415289 0c30.90076 0 55.937356 24.698368 55.937356 55.299511L912.644947 310.636422C912.703634 341.127911 887.667038 365.826279 856.766278 365.826279L856.766278 365.826279 856.766278 365.826279zM825.028443-78.080249c0-12.313662-4.288855-22.871319-13.073517-31.527794-8.699719-8.712074-19.218765-13.073517-31.521617-13.073517l-535.262073 0c-12.313662 0-22.823442 4.30121-31.47374 13.073517-8.712074 8.713619-13.127572 19.214132-13.127572 31.527794L200.569924 234.16291c0 24.55937 19.973987 44.542624 44.601312 44.542624l535.24354 0c24.62578 0 44.613667-19.981709 44.613667-44.542624L825.028443-78.080249 825.028443-78.080249zM825.028443-78.080249"  horiz-adv-x="1024" />

    
    <glyph glyph-name="guanbi1" unicode="&#58932;" d="M514.961067 777.626027c-264.618667 0-479.184213-214.565547-479.184213-479.232 0-264.620373 214.565547-479.182507 479.184213-479.182507 264.66816 0 479.233707 214.565547 479.233707 479.182507C994.194773 563.06048 779.629227 777.626027 514.961067 777.626027zM514.961067-83.44704c-210.865493 0-381.846187 170.973867-381.846187 381.83936 0 210.91328 170.980693 381.88544 381.846187 381.88544 210.914987 0 381.888853-170.973867 381.888853-381.88544C896.84992 87.526827 725.876053-83.44704 514.961067-83.44704zM741.927253 157.19296c11.84768-12.30336 20.585813-23.579307 26.11712-33.83296 5.527893-10.205867 4.637013-21.930667-2.766507-35.027627-1.652053-2.45248-3.92192-5.440853-6.770347-8.91392-2.853547-3.524267-5.843627-6.86592-8.915627-10.120533-3.032747-3.298987-6.150827-6.290773-9.186987-8.915627-3.116373-2.67776-5.661013-4.637013-7.707307-5.88288-10.253653-6.150827-22.336853-7.758507-36.23936-4.903253-13.99296 2.855253-26.478933 9.8048-37.527893 20.901547l-25.847467 25.8048-34.41152 34.413227-40.567467 40.603307-44.25728 44.265813-78.667093-78.716587c-24.205653-24.157867-43.861333-44.040533-59.01312-59.634347-15.602347-15.5136-31.06816-25.183573-46.44864-28.88192-15.330987-3.662507-28.970667-0.1792-40.871253 10.473813l-4.322987 4.32128-6.775467 6.72768-6.72768 6.775467c-2.45248 2.454187-3.879253 4.099413-4.32128 4.944213-4.503893 5.712213-7.13216 11.549013-7.983787 17.47456-0.8448 5.96992-0.3072 11.810133 1.5616 17.52064 1.829547 5.742933 4.590933 11.270827 8.28928 16.61952 3.652267 5.346987 7.75168 10.253653 12.30336 14.75584 3.652267 3.249493 10.246827 9.403733 19.65568 18.408107l33.206613 34.454187c13.549227 13.146453 28.5696 27.854507 45.19424 44.2624 16.57856 16.397653 33.875627 33.600853 51.928747 51.607893-19.6608 19.698347-38.4256 38.330027-56.297813 55.983787-17.778347 17.604267-33.78176 33.385813-47.90784 47.33952-14.134613 13.904213-25.719467 25.311573-34.727253 34.095787-8.999253 8.82688-14.528853 14.214827-16.57856 16.26624-10.69568 10.702507-16.13824 21.215573-16.31232 31.691093-0.180907 10.47552 3.38432 20.995413 10.78272 31.643307 3.25632 4.102827 7.932587 8.920747 14.086827 14.441813 6.150827 5.57568 10.473813 9.140907 12.928 10.74176 12.30336 8.203947 23.354027 11.813547 33.204907 10.789547 9.85088-1.025707 19.65568-6.68672 29.50656-16.933547l19.032747-19.039573c9.449813-9.402027 21.121707-20.901547 35.034453-34.402987 13.99296-13.550933 29.641387-28.796587 47.064747-45.81888 17.430187-16.981333 35.572053-34.725547 54.382933-53.17632 15.597227 15.60064 30.839467 30.754133 45.81888 45.463893 14.976 14.7968 28.88192 28.613973 41.808213 41.541973 12.919467 12.926293 24.6016 24.465067 35.029333 34.720427 10.432853 10.253653 19.16416 18.850133 26.123947 25.806507 9.85088 9.449813 20.497067 15.68768 31.998293 18.7648 11.460267 3.075413 22.50752 0.489813 33.158827-7.714133 0.45056-0.354987 1.742507-1.426773 4.017493-3.027627 2.230613-1.64864 4.503893-3.479893 6.77376-5.5296 2.235733-2.049707 4.37248-4.007253 6.422187-5.88288 2.048-1.824427 3.479893-2.942293 4.32128-3.38432 11.050667-10.60864 16.49152-22.1952 16.269653-34.681173-0.1792-12.52352-5.61664-24.111787-16.269653-34.75968-7.35232-7.405227-16.49152-16.585387-27.368107-27.63776-10.8288-11.096747-22.951253-23.179947-36.232533-36.282027-13.33248-13.10208-27.369813-27.052373-42.166613-41.80992l-46.706347-46.708053c15.15008-14.798507 30.035627-29.238613 44.567893-43.37152 14.578347-14.12608 28.079787-27.323733 40.558933-39.61856 12.52352-12.305067 23.804587-23.58272 33.875627-33.792C727.036587 172.124587 735.32416 163.74144 741.927253 157.19296L741.927253 157.19296z"  horiz-adv-x="1024" />

    
    <glyph glyph-name="yulan" unicode="&#58889;" d="M510.679 809.867c-291.31 0-510.556-425.459-510.556-425.459s219.65-425.468 510.556-425.468c290.901 0 510.556 425.468 510.556 425.468s-219.246 425.459-510.556 425.459zM683.723 84.091c-58.859-37.943-117.084-57.183-173.044-57.183-55.965 0-114.191 19.239-173.053 57.183-49.456 31.884-99.372 76.838-148.367 133.626-55.001 63.747-96.546 128.383-119.377 166.752 22.461 37.85 63.139 101.239 117.488 164.608 49.141 57.297 99.261 102.69 148.963 134.911 59.267 38.428 117.926 57.914 174.347 57.914 56.059 0 114.339-19.235 173.222-57.179 49.469-31.888 99.375-76.838 148.329-133.603 54.937-63.705 96.41-128.306 119.214-166.685-22.843-38.399-64.378-102.996-119.347-166.718-48.996-56.782-98.911-101.741-148.375-133.626zM510.674 595.094c-124.529 0-225.844-94.513-225.844-210.685 0-116.177 101.315-210.693 225.844-210.693 124.533 0 225.849 94.516 225.849 210.693-0.001 116.172-101.315 210.685-225.849 210.685zM510.674 241.674c-84.362 0-152.992 64.033-152.992 142.734 0 78.693 68.631 142.726 152.992 142.726 84.357 0 152.992-64.033 152.992-142.726 0-78.701-68.637-142.734-152.992-142.734z"  horiz-adv-x="1024" />

    
    <glyph glyph-name="caidan2" unicode="&#59040;" d="M1.114 300.226c0 56.444 45.767 102.177 102.177 102.177 56.444 0 102.175-45.733 102.175-102.176 0-56.444-45.731-102.178-102.175-102.178C46.881 198.049 1.114 243.782 1.114 300.226zM409.822 300.226c0 56.444 45.767 102.177 102.178 102.176 56.443 0 102.177-45.733 102.177-102.175 0-56.444-45.733-102.178-102.177-102.178C455.589 198.049 409.822 243.782 409.822 300.226zM818.532 300.226c0 56.444 45.767 102.176 102.177 102.176 56.443 0 102.177-45.733 102.177-102.175 0-56.444-45.733-102.178-102.177-102.178C864.299 198.049 818.532 243.782 818.532 300.226z"  horiz-adv-x="1024" />

    
    <glyph glyph-name="iconfonticon3" unicode="&#58894;" d="M896 3.143434c0-45.123232-36.589899-81.713131-81.713131-81.713131L211.006061-78.569697c-45.123232 0-81.713131 36.589899-81.713131 81.713131L129.292929 594.4c0 45.123232 36.589899 81.713131 81.713131 81.713131l603.151515 0c45.123232 0 81.713131-36.589899 81.713131-81.713131L895.870707 3.143434 896 3.143434zM848.808081 594.4c0 19.135354-15.515152 34.521212-34.521212 34.521212L211.006061 628.921212c-19.135354 0-34.521212-15.515152-34.521212-34.521212l0-591.385859c0-19.135354 15.515152-34.521212 34.521212-34.521212l603.151515 0c19.135354 0 34.521212 15.515152 34.521212 34.521212L848.678788 594.4 848.808081 594.4zM867.814141 499.240404 148.428283 499.240404c-6.464646 0-11.765657 5.30101-11.765657 11.765657 0 6.464646 5.30101 11.765657 11.765657 11.765657l719.515152 0c6.464646 0 11.765657-5.30101 11.765657-11.765657C879.709091 504.541414 874.408081 499.240404 867.814141 499.240404L867.814141 499.240404zM230.917172 558.19798l-11.765657 0c-6.464646 0-11.765657 5.30101-11.765657 11.765657 0 6.464646 5.30101 11.765657 11.765657 11.765657l11.765657 0c6.464646 0 11.765657-5.30101 11.765657-11.765657C242.682828 563.49899 237.511111 558.19798 230.917172 558.19798L230.917172 558.19798zM313.535354 558.19798l-11.765657 0c-6.464646 0-11.765657 5.30101-11.765657 11.765657 0 6.464646 5.30101 11.765657 11.765657 11.765657l11.765657 0c6.464646 0 11.765657-5.30101 11.765657-11.765657C325.30101 563.49899 320 558.19798 313.535354 558.19798L313.535354 558.19798zM396.024242 558.19798l-11.765657 0c-6.464646 0-11.765657 5.30101-11.765657 11.765657 0 6.464646 5.30101 11.765657 11.765657 11.765657l11.765657 0c6.464646 0 11.765657-5.30101 11.765657-11.765657C407.919192 563.49899 402.618182 558.19798 396.024242 558.19798L396.024242 558.19798z"  horiz-adv-x="1024" />

    
    <glyph glyph-name="shenhe" unicode="&#58939;" d="M713.626827 394.682012c-12.114934 7.711643-28.193137 4.133138-35.880221-8.028868l-186.539697-294.930444-121.76435 97.999063c-11.168375 9.018407-27.540267 7.179523-36.507508-4.086066-8.971334-11.292195-7.157011-27.732649 4.061506-36.775615l144.347717-116.154579c4.640698-3.750421 10.348706-5.75508 16.222489-5.75508 1.425467 0 2.855027 0.119727 4.253888 0.388857 7.277761 1.206479 13.709247 5.464461 17.65205 11.747567l202.110339 319.499027C729.295707 370.746856 725.716178 386.922274 713.626827 394.682012zM757.389583 627.352398l-76.912794 0 0 23.743797-71.422751 0c-11.752683 49.906693-54.159558 96.208275-107.307065 96.208275-53.143414 0-98.549602-46.300559-110.302285-96.208275l-71.422751 0 0-23.743797-53.412544 0c-78.00057 0-141.46813-60.105996-141.46813-138.567054l0-493.751874c0-78.457988 63.466537-142.337941 141.46813-142.337941l490.78019 0c78.00057 0 141.46813 63.880977 141.46813 142.337941L898.857713 488.785344C898.857713 567.247425 835.391176 627.352398 757.389583 627.352398zM438.859628 604.070113l0 29.958342c0 33.632015 29.473295 65.497802 62.912928 65.497802 33.414051 0 58.343861-31.865787 58.343861-65.497802l0-29.958342 72.199441 0 0-121.934219-266.380173 0L365.935686 604.070113 438.859628 604.070113zM849.174101-4.96653c0-49.637563-42.410968-93.814759-91.783495-93.814759l-490.78019 0c-49.347967 0-95.554382 44.178219-95.554382 93.814759L171.056035 488.785344c0 49.638587 46.181855 90.043872 95.554382 90.043872l53.412544 0 0-145.24311 360.453829 0L680.476789 578.829217l76.912794 0c49.372527 0 91.783495-40.406309 91.783495-90.043872L849.173078-4.96653z"  horiz-adv-x="1024" />

    
    <glyph glyph-name="weibiaoti1" unicode="&#58895;" d="M977.754839 58.864516 858.83871 58.864516 858.83871 177.780645c0 26.425806-19.819355 46.245161-46.245161 46.245161-26.425806 0-46.245161-19.819355-46.245161-46.245161l0-125.522581L634.219355 52.258065c-26.425806 0-46.245161-19.819355-46.245161-46.245161 0-26.425806 19.819355-46.245161 46.245161-46.245161l125.522581 0 0-125.522581c0-26.425806 19.819355-46.245161 46.245161-46.245161 26.425806 0 46.245161 19.819355 46.245161 46.245161l0 125.522581 125.522581 0c26.425806 0 46.245161 19.819355 46.245161 46.245161C1030.606452 32.43871 1004.180645 58.864516 977.754839 58.864516L977.754839 58.864516zM508.696774-73.264516 508.696774-73.264516 145.341935-73.264516c-26.425806 0-46.245161 19.819355-46.245161 46.245161L99.096774 666.658065c0 26.425806 19.819355 46.245161 46.245161 46.245161l687.070968 0c26.425806 0 46.245161-19.819355 46.245161-46.245161l0-350.141935 0 0c0 0 0 0 0 0 0-26.425806 19.819355-46.245161 46.245161-46.245161 26.425806 0 46.245161 19.819355 46.245161 46.245161 0 0 0 0 0 0l0 0 0 396.387097c0 52.851613-46.245161 99.096774-99.096774 99.096774L99.096774 812C46.245161 812 0 765.754839 0 712.903226l0-786.167742c0-52.851613 46.245161-99.096774 99.096774-99.096774l409.6 0 0 0c26.425806 0 46.245161 19.819355 46.245161 46.245161C554.941935-93.083871 535.122581-73.264516 508.696774-73.264516L508.696774-73.264516zM508.696774 72.077419c19.819355 39.63871 66.064516 66.064516 112.309677 66.064516l52.851613 0L673.858065 197.6c0 52.851613 33.032258 99.096774 79.277419 118.916129l0 0 0 0-66.064516 198.193548L455.845161 217.419355 389.780645 323.122581l-244.43871-251.045161L508.696774 72.077419 508.696774 72.077419zM389.780645 494.890323c0 39.63871-33.032258 72.670968-72.670968 72.670968-39.63871 0-72.670968-33.032258-72.670968-72.670968 0-39.63871 33.032258-72.670968 72.670968-72.670968C356.748387 422.219355 389.780645 455.251613 389.780645 494.890323L389.780645 494.890323zM389.780645 494.890323"  horiz-adv-x="1031" />

    
    <glyph glyph-name="iconfonthome" unicode="&#58880;" d="M1011.029 498.62l-432.606 341.914c-37.239 29.491-95.676 29.457-132.881 0l-432.572-341.914c-14.78-11.708-17.306-33.178-5.632-47.957s32.666-17.306 47.445-5.632l13.483 11.059v-413.423c0-58.607 61.747-102.4 116.053-102.4h682.667c53.658 0 88.747 41.165 88.747 102.4v411.819l12.459-9.455c6.281-4.949 13.995-7.339 21.402-7.339 10.069 0 20.173 4.437 26.897 12.971 11.708 14.78 9.353 36.25-5.461 47.957zM477.867 8.533v189.235c0 9.421 17.067 14.131 34.133 14.131s34.133-4.71 34.133-14.131v-189.235h-68.267zM887.467 42.667c0-22.63-6.246-34.133-20.48-34.133h-251.904c0 0.512-0.683 0.922-0.683 1.434v187.802c0 39.697-32.017 82.432-102.4 82.432s-102.4-42.735-102.4-82.432v-187.802c0-0.512 0.922-0.922 0.922-1.434h-226.202c-21.402 0-47.787 18.5-47.787 34.133v467.388l350.857 276.924c12.595 9.967 35.328 9.967 47.957 0l352.119-278.528v-465.783z"  horiz-adv-x="1024" />

    
    <glyph glyph-name="yulan1" unicode="&#58982;" d="M673.564-125.669h-460.713c-70.143 0-127.225 57.35-127.225 127.922v707.935c0 70.575 57.078 127.977 127.225 127.977h594.523c70.202 0 127.283-57.399 127.283-127.977v-184.682c0-14.777-10.756-26.773-25.533-26.773s-24.29 11.997-24.29 26.773v184.682c0 41.018-36.815 78.154-77.46 78.154h-594.523c-40.638 0-77.402-37.136-77.402-78.154v-707.988c0-41.017 36.763-78.099 77.402-78.099h460.713c14.781 0 26.774-10.752 26.774-25.533 0-14.778-11.94-24.237-26.774-24.237v0zM979.42-97.714c-6.85 0-13.706 2.624-18.955 7.821l-133.918 133.918c-43.695-34.861-99.009-55.741-159.14-55.741-140.772 0-255.305 114.586-255.305 255.358 0 140.773 114.532 255.364 255.305 255.364 140.773 0 255.358-114.537 255.358-255.364 0-61.418-21.792-117.856-58.093-161.978l133.651-133.652c5.244-5.243 7.815-12.099 7.815-18.954 0-6.857-2.624-13.709-7.815-18.955-5.194-5.25-12.050-7.821-18.905-7.821v0zM667.459 448.562c-112.979 0-204.868-91.886-204.868-204.922 0-113.033 91.886-204.922 204.868-204.922s204.922 91.888 204.922 204.922c0.001 113.034-91.939 204.922-204.922 204.922v0zM388.379 29.461h-116.731c-14.781 0-26.773 11.287-26.773 25.193s11.993 25.194 26.773 25.194h116.784c14.778 0 26.774-11.287 26.774-25.194 0-13.905-11.997-25.193-26.828-25.193v0zM343.293 331.246h-71.643c-14.781 0-26.773 11.345-26.773 25.324 0 13.982 11.993 25.328 26.773 25.328h71.696c14.781 0 26.773-11.345 26.773-25.328 0-13.979-11.993-25.324-26.827-25.324v0zM748.636 633.652h-476.987c-14.781 0-26.773 11.277-26.773 25.179 0 13.895 11.993 25.177 26.773 25.177h476.987c14.778 0 26.774-11.282 26.774-25.177 0-13.903-11.997-25.179-26.774-25.179v0zM748.636 633.652z"  horiz-adv-x="1024" />

    
    <glyph glyph-name="p-types" unicode="&#59000;" d="M740.041-102.040c-39.246 0-71.176 31.878-71.176 71.062l0 276.668c0 39.217 31.93 71.123 71.176 71.123l276.616-0c39.184 0 71.062-31.905 71.062-71.123v-276.667c0-39.184-31.878-71.062-71.062-71.062l-276.616 0zM774.631 253.438c-23.345 0-42.337-18.992-42.337-42.336l0-207.49c0-23.345 18.994-42.337 42.337-42.337h207.436c23.345 0 42.337 18.994 42.337 42.337l0 207.491c0 23.345-18.994 42.336-42.337 42.336h-207.436zM740.041 451.184c-39.246 0-71.176 31.905-71.176 71.122l0 276.671c0 39.184 31.93 71.062 71.176 71.062h276.616c39.184 0 71.062-31.878 71.062-71.062v-276.671c0-39.217-31.878-71.122-71.062-71.122h-276.616zM774.631 806.672c-23.345 0-42.337-18.996-42.337-42.345v-207.37c0-23.35 18.994-42.345 42.337-42.345h207.436c23.345 0 42.337 18.996 42.337 42.345l0 207.37c0 23.35-18.994 42.345-42.337 42.345h-207.436zM186.643-102.040c-39.184 0-71.062 31.878-71.062 71.062l0 276.668c0 39.217 31.878 71.123 71.062 71.123h276.616c39.213 0 71.115-31.905 71.115-71.123v-276.667c0-39.184-31.902-71.062-71.115-71.062h-276.616zM221.292 253.438c-23.35 0-42.345-18.992-42.345-42.336v-207.49c0-23.345 18.996-42.337 42.345-42.337h207.43c23.346 0 42.337 18.994 42.337 42.339l-0.052 207.489c0 23.345-18.996 42.336-42.345 42.336l-207.37-0zM186.643 451.184c-39.184 0-71.062 31.905-71.062 71.122l0 276.671c0 39.184 31.878 71.062 71.062 71.062h276.616c39.213 0 71.115-31.878 71.115-71.062v-276.671c0-39.217-31.902-71.122-71.115-71.122h-276.616zM221.292 806.672c-23.35 0-42.345-18.996-42.345-42.345v-207.37c0-23.35 18.996-42.345 42.345-42.345h207.43c23.346 0 42.337 18.998 42.337 42.347l-0.052 207.367c0 23.35-18.996 42.345-42.345 42.345h-207.37zM-0 848.628z"  horiz-adv-x="1114" />

    
    <glyph glyph-name="xiugai" unicode="&#59030;" d="M998.487 524.985l-345.591 345.593c-33.899 33.899-89.198 33.899-123.097 0l-504.288-504.388c-16.4-16.4-25.499-38.299-25.499-61.498v-345.591c0-47.999 39.099-87.098 87.098-87.098h368.391c8.5 0 16.601 3.401 22.599 9.401l520.387 520.387c16.4 16.4 25.499 38.299 25.499 61.598 0 23.199-9.1 45.099-25.499 61.598zM574.998 825.277c4.5 4.5 10.4 6.7 16.3 6.7s11.801-2.201 16.3-6.7l151.895-151.897-503.687-503.687-168.196 168.196 487.388 487.388zM64.011-40.902v311.892l334.992-334.992h-311.892c-12.8 0-23.099 10.4-23.099 23.099zM953.189 447.086l-487.388-487.388-164.697 164.695 503.687 503.687 148.496-148.496c4.4-4.4 6.8-10.201 6.8-16.3s-2.5-11.9-6.9-16.201z"  horiz-adv-x="1024" />

    
    <glyph glyph-name="04" unicode="&#58881;" d="M511.193635 896c-281.853319 0-511.172145-229.318826-511.172145-511.172145 0-122.9441 44.262086-241.750973 124.655068-334.530053 97.223299-112.271016 238.114143-176.642093 386.517077-176.642093 281.853319 0 511.172145 229.318826 511.172145 511.172145S793.046954 896 511.193635 896zM511.193635-77.661521c-109.490693 0-214.055191 39.274492-296.768007 108.639303 21.999037 146.970306 147.913794 256.483512 297.956066 256.483512 148.259672 0 273.390577-105.971543 297.566186-251.972778 0.13917-0.844228 0.651846-1.497097 0.871857-2.307555C730.023572-35.768389 625.484657-77.661521 511.193635-77.661521zM511.193635 336.145086c-89.593528 0-162.475442 72.881914-162.475442 162.450882 0 89.593528 72.881914 162.475442 162.475442 162.475442 89.568968 0 162.450882-72.881914 162.450882-162.475442C673.644517 409.027 600.762603 336.145086 511.193635 336.145086zM851.710029 72.958918C821.72511 191.017754 733.565235 282.304853 621.191888 318.719204c60.540841 37.158295 101.135398 103.775528 101.135398 179.876764 0 116.430756-94.703919 211.158211-211.134675 211.158211s-211.158211-94.727455-211.158211-211.158211c0-76.508511 41.041742-143.431713 102.128005-180.469258C289.565978 280.910087 201.836915 188.329529 172.708504 70.534705c-3.678786 3.959172-7.682983 7.538697-11.234879 11.640108-72.715115 83.935668-112.769366 191.404308-112.769366 302.653041 0 255.016091 207.473285 462.489376 462.489376 462.489376S973.683011 639.842922 973.683011 384.827855C973.683011 264.598586 927.181931 155.293111 851.710029 72.958918z"  horiz-adv-x="1024" />

    
    <glyph glyph-name="shenhezhong" unicode="&#58979;" d="M512 860.918c-263.395 0-476.919-213.523-476.919-476.918s213.525-476.918 476.919-476.918 476.918 213.523 476.918 476.918c0.001 263.396-213.522 476.918-476.918 476.918zM512-24.787c-225.767 0-408.787 183.020-408.787 408.787s183.020 408.787 408.787 408.787c225.767 0 408.787-183.020 408.787-408.787s-183.020-408.787-408.787-408.787zM513.092 656.212l-70.153-0.062 0.283-313.707 0.050-6.998 0.047-3.793 258.305-185.586 41.475 56.582-229.718 168.383z"  horiz-adv-x="1024" />

    
    <glyph glyph-name="iconzhenghe32" unicode="&#59185;" d="M824.556544 374.92736 662.060032 174.92992 662.060032 719.130624l-0.182272 0c-1.8944 20.08576-18.799616 35.80416-39.380992 35.80416-20.581376 0-37.486592-15.7184-39.380992-35.80416l-0.182272 0 0-651.870208 0.186368 0.044032c-0.119808-1.252352-0.186368-2.520064-0.186368-3.803136 0-21.849088 17.713152-39.563264 39.563264-39.563264 12.351488 0 23.37792 5.66272 30.63296 14.53056l0.004096-0.003072 232.659968 286.35648L824.556544 374.92736zM385.119232 754.934784c-12.34944 0-23.375872-5.661696-30.630912-14.528512l-0.004096 0.003072-232.66304-286.35648 61.238272-50.105344 162.496512 199.994368 0-544.198656 0.182272 0c1.893376-20.086784 18.798592-35.806208 39.380992-35.806208s37.487616 15.719424 39.380992 35.806208l0.182272 0L424.682496 716.329984l-0.023552-0.007168C424.15104 737.731584 406.648832 754.934784 385.119232 754.934784z"  horiz-adv-x="1024" />

    
    <glyph glyph-name="guanbi" unicode="&#58925;" d="M571.733333 384l179.2 179.2C768 580.266667 768 605.866667 750.933333 622.933333S708.266667 640 691.2 622.933333L512 443.733333 332.8 622.933333C315.733333 640 290.133333 640 273.066667 622.933333S256 580.266667 273.066667 563.2L452.266667 384 273.066667 204.8C256 187.733333 256 162.133333 273.066667 145.066667s42.666667-17.066667 59.733333 0L512 324.266667l179.2-179.2C708.266667 128 733.866667 128 750.933333 145.066667s17.066667 42.666667 0 59.733333L571.733333 384z"  horiz-adv-x="1024" />

    
    <glyph glyph-name="iconfuzhi" unicode="&#58882;" d="M431.959 598.651c32.287 33.529 64.583 67.068 96.869 100.595 25.655 31.759 64.757 56.032 85.692 91.902-14.046 17.262-143.667 38.906-178.836 38.499-12.833-4.14-25.668-8.279-38.499-12.419-29.159-17.154-80.977-75.714-103.078-103.078-18.627-19.041-37.259-38.087-55.887-57.127l-28.564-28.564c95.159 0.802 152.348 3.662 222.303-29.805zM588.442 706.698c-0.414-2.070-0.83-4.14-1.242-6.21v-1.242c12.201-7.155 33.494-7.987 49.677-11.178 3.161-4.234 4.981-4.414 6.21-11.178-38.909-40.151-77.83-80.315-116.74-120.466-8.709-10.784-22.233-17.847-28.564-31.049-0.83-0.83-1.655-1.655-2.484-2.484 14.074-5.795 28.15-11.593 42.224-17.387 39.090-22.634 91.18-55.659 104.322-103.078 16.144 7.684 32.403 31.028 43.468 44.709 25.434 31.451 57.572 57.613 83.21 89.418 11.23 13.932 32.442 27.997 37.258 47.193 8.374 33.379-14.73 54.101-29.805 65.822-40.158 31.22-94.813 70.167-163.932 69.547-10.615-4.513-17.188-4.137-23.597-12.419zM238.222 288.173v6.21c-16.558 3.311-33.12 6.624-49.677 9.935-1.655 2.069-3.312 4.141-4.967 6.21 3.293 20.495 35.574 40.881 48.435 54.644 38.909 43.050 77.83 86.111 116.74 129.159 11.012 11.507 57.392 51.472 49.677 72.032-10.944 28.62-146.455 29.492-193.739 28.564-42.721-18.097-75.681-59.271-103.078-93.145-21.938-23.18-43.884-46.367-65.822-69.547-11.633-15.988-24.418-49.412-8.693-70.789 21.627-29.399 103.146-69.463 142.819-81.967 19.748-6.223 61.374-13.653 68.305 8.693zM973.435 453.346c-43.985 33.184-91.712 62.041-161.45 69.547-12.541-4.733-21.779-2.081-27.323-13.66v-8.693c14.286-3.088 55.55-4.24 53.402-19.871-7.052-16.796-32.039-32.039-44.709-44.709-34.356-34.77-68.723-69.549-103.078-104.322 1.191-5.484 52.205-26.939 62.095-33.532 42.947-28.624 51.586-48.479 74.514-96.869v-2.484c12.418 11.589 24.838 23.184 37.258 34.774 34.754 28.042 70.043 62.139 98.111 96.869 14.614 18.085 38.395 35.309 43.468 62.095 5.908 31.199-17.027 49.339-32.29 60.854zM439.412 187.578c34.356 35.598 68.723 71.205 103.078 106.804 16.17 19.983 42.421 34.879 50.919 62.095 10.17 32.573-11.513 55.813-28.564 69.547-39.708 31.98-83.952 71.69-155.239 70.789-10.319-4.533-17.053-5.69-24.837-11.178-0.414-1.242-0.83-2.484-1.242-3.726 0.789-4.967-0.097-3.696 2.484-6.21 11.974-9.454 54.577-1.935 52.16-21.113-9.641-22.589-42.558-43.678-59.613-60.854-41.393-43.465-82.798-86.94-124.192-130.401-11.582-11.691-61.292-53.476-53.402-74.514 9.536-25.149 112.784-36.791 146.546-43.468 14.423-2.85 39.557-5.506 50.919 1.242 13.659 13.66 27.324 27.325 40.982 40.982zM764.794 228.56c-36.159 36.001-89.289 76.698-160.206 75.757-13.299-5.021-24.278-3.019-24.837-21.113 18.561-6.883 47.387-3.418 55.887-21.113-11.711-21.639-37.697-38.569-54.644-55.887-43.462-45.946-86.939-91.907-130.401-137.852-11.395-14.093-62.812-49.822-53.402-74.514 8.946-23.283 110.346-38.883 142.819-44.709h47.193c18.94 7.846 30.651 31.124 45.95 43.468 29.857 24.091 147.113 136.006 156.482 168.901 9.297 32.642-10.78 53.065-24.837 67.065z"  horiz-adv-x="1024" />

    
    <glyph glyph-name="sort-copy" unicode="&#58885;" d="M975.066 353.195c-12.75 12.658-28.687 18.98-44.623 18.98s-31.868-6.321-44.618-18.98l-159.356-158.141v525.044c0 34.793-28.686 60.096-60.554 60.096-31.873 0-60.562-28.469-60.562-60.096v-673.699c0-34.794 28.689-60.111 60.562-60.111 15.935 0 31.869 6.336 44.618 18.982l261.347 259.361c28.683 25.3 28.683 63.259 3.186 88.563zM404.567 764.382c-12.746 12.647-28.69 18.977-44.626 18.977-6.37 0-12.746-3.167-19.117-3.167 0 0 0 0-3.19 0-9.561-6.321-15.931-12.657-22.31-18.98l-258.157-256.191c-25.5-25.3-25.5-63.263 0-85.409 12.746-12.647 28.683-18.969 44.617-18.969 15.936 0 31.876 6.324 44.618 18.969l156.172 154.995v-525.054c0-34.794 28.69-60.093 60.562-60.093 31.873 0 60.554 28.47 60.554 60.093v667.379c0 15.824-6.37 34.794-19.121 47.451z"  horiz-adv-x="1024" />

    
    <glyph glyph-name="quanxianguanli" unicode="&#58914;" d="M506.452-140.186c-10.685 0-21.37 2.465-30.822 7.397-20.138 10.685-41.918 23.837-64.522 38.631-58.356 38.631-118.769 87.535-170.55 138.495-58.767 57.535-107.262 117.947-140.139 174.25-33.287 57.124-50.549 111.372-50.549 156.989v470.143l49.316-15.205c37.808-11.507 74.796-17.26 109.727-17.26 101.508 0 201.373 28.768 281.922 80.96l20.959 13.563 20.959-13.563c80.139-52.192 180.413-80.96 281.922-80.96 34.932 0 71.919 5.754 109.727 17.26l49.316 15.205v-469.732c0-43.973-18.083-97.398-52.192-153.701-33.699-55.891-83.425-115.892-144.249-174.25-52.604-50.138-114.659-99.863-174.25-140.139-23.013-15.205-44.796-28.768-64.932-39.863-9.453-5.343-20.548-8.22-31.644-8.22zM126.721 375.986c0-31.644 14.384-73.563 40.275-118.357 29.179-50.549 73.151-105.206 127.399-157.811 48.494-47.261 105.206-93.289 159.454-129.454 18.494-12.329 36.576-23.013 53.014-32.055 16.849 9.453 34.932 20.548 54.247 33.699 56.302 37.397 114.247 84.247 163.975 131.509 55.891 53.836 101.508 108.495 131.92 158.633 26.302 43.973 41.097 84.658 41.097 114.247v368.636c-27.946-5.343-55.481-8.22-82.604-8.22-108.495 0-213.29 27.946-302.881 80.549-89.589-52.604-193.975-80.549-302.881-80.549-26.713 0-54.659 2.877-82.604 8.22v-369.046zM503.986 322.561c-92.878 0-168.496 75.618-168.496 168.496s75.618 168.496 168.496 168.496 168.496-75.618 168.496-168.496-75.206-168.496-168.496-168.496zM503.986 583.113c-50.549 0-92.057-41.097-92.057-92.057 0-50.549 41.097-92.057 92.057-92.057 50.549 0 92.057 41.097 92.057 92.057 0 50.96-41.097 92.057-92.057 92.057zM508.507 108.448c-20.959 0-38.22 17.26-38.22 38.22v195.209c0 20.959 17.26 38.22 38.22 38.22s38.22-17.26 38.22-38.22v-195.619c0-20.959-17.26-37.808-38.22-37.808zM523.712 218.176c-20.959 0-38.22 17.26-38.22 38.22s17.26 38.22 38.22 38.22h65.344c20.959 0 38.22-17.26 38.22-38.22s-17.26-38.22-38.22-38.22h-65.344z"  horiz-adv-x="1024" />

    
    <glyph glyph-name="arrow-left-copy" unicode="&#58886;" d="M699.387 20.409c0 0-413.412 317.444-413.412 317.444-28.734 22.061-28.734 69.891 0 91.951 0 0 413.412 317.444 413.412 317.444 26.633 20.453 59.942-5.128 59.942-46.038 0 0 0-634.827 0-634.827 0-40.847-33.307-66.43-59.942-45.976 0 0 0 0 0 0z"  horiz-adv-x="1024" />

    
    <glyph glyph-name="arrow-left-copy1" unicode="&#58893;" d="M324.613 747.591c0 0 413.412-317.444 413.412-317.444 28.734-22.060 28.734-69.89 0-91.951 0 0-413.412-317.444-413.412-317.444-26.633-20.453-59.941 5.128-59.942 46.038 0 0 0 634.826 0 634.826 0 40.847 33.308 66.43 59.941 45.976 0 0 0 0 0 0z"  horiz-adv-x="1024" />

    
    <glyph glyph-name="password" unicode="&#58942;" d="M513.35 829.997c-246.296 0-446.673-200.377-446.673-446.673s200.377-446.673 446.673-446.673c246.296 0 446.672 200.377 446.672 446.673s-200.378 446.673-446.672 446.673zM513.35-10.28c-217.041 0-393.602 176.573-393.602 393.603s176.561 393.603 393.602 393.603c217.030 0 393.602-176.573 393.602-393.603s-176.573-393.603-393.602-393.603zM714.427 597.685l-40.035 22.621 3.929 6.953c7.203 12.76 2.705 28.945-10.053 36.158-12.76 7.17-28.944 2.706-36.158-10.052l-143.284-253.605c-16.948 6.392-34.94 9.786-53.069 9.786-54.365 0-104.739-29.385-131.467-76.678-40.909-72.418-15.28-164.624 57.138-205.541 22.621-12.773 48.245-19.53 74.086-19.53 54.365 0 104.739 29.377 131.45 76.669 19.822 35.076 24.795 75.78 14.008 114.603-8.061 29.015-24.222 54.366-46.497 73.603l74.723 132.26 40.045-22.62c4.127-2.324 8.612-3.438 13.033-3.438 9.252 0 18.254 4.855 23.123 13.494 7.215 12.758 2.714 28.942-10.043 36.158l-40.044 22.62 12.965 22.951 40.045-22.621c4.129-2.324 8.602-3.436 13.026-3.436 9.26 0 18.252 4.854 23.131 13.492 7.203 12.754 2.715 28.941-10.053 36.153zM520.76 210.57c-17.318-30.657-49.977-49.701-85.244-49.701-16.723 0-33.308 4.378-47.976 12.672-46.945 26.516-63.554 86.281-37.038 133.227 17.329 30.663 49.995 49.709 85.255 49.709 16.722 0 33.307-4.378 47.974-12.672 22.742-12.845 39.12-33.782 46.109-58.944 6.995-25.169 3.774-51.548-9.080-74.291z"  horiz-adv-x="1024" />

    
    <glyph glyph-name="tianjia" unicode="&#58940;" d="M696.647363 424.74737 553.362225 424.74737 553.362225 568.284448c0 22.629652-18.370658 40.964319-40.964319 40.964319-22.629652 0-40.964319-18.262684-40.964319-40.964319l0-143.502086L328.111458 424.782362c-22.629652 0-40.999311-18.40665-40.999311-40.999311 0-22.629652 18.298676-41.00131 40.999311-41.00131l143.322129 0 0-143.501087c0-22.557669 18.334667-41.037302 40.964319-41.037302 22.59366 0 40.964319 18.334667 40.964319 41.037302L553.362225 342.673767l143.285138 0c22.520678 0 41.00131 18.334667 41.00131 41.037302C737.611682 406.375712 719.313006 424.74737 696.647363 424.74737L696.647363 424.74737M512 896C229.760701 896 0 666.346274 0 383.999c0-282.346274 229.760701-512 512-512 282.348273 0 512.037991 229.616735 512.037991 512C1024.037991 666.346274 794.385264 896 512 896L512 896M512-63.974131c-247.049615 0-447.973131 200.960507-447.973131 447.93814 0 247.121598 200.923516 448.010123 447.973131 448.010123s448.010123-200.888524 448.010123-448.010123C960.047114 137.022368 759.049615-63.974131 512-63.974131L512-63.974131M512-63.974131"  horiz-adv-x="1025" />

    
    <glyph glyph-name="butbianyidabao" unicode="&#58955;" d="M873.4952128511999 651.1461230667851L535.3460099956937 821.0744996699653c-7.650194308108641 3.82708491757037-16.217087413412347 3.621754318696296-23.434103325076542 0.2424217094320987l0 0.07285920300246912L150.50478714880006 651.1818898646914c-10.029371826883951-3.9105412108641975-17.161605838064197-13.684244318182717-17.161605838064197-25.1509251590321l0-463.9448978773333 0.12054869839012344 0c0-9.507437297461728 5.055089100167901-18.704892227634566 13.987602533135801-23.55597633611852l349.715238214163-189.93943076156046 0.19208229420246914-0.1695625064296296 0.09537899077530863-0.03576679790617284 0.12319732369382715-0.08345629329382716 0.1934079013925926-0.12054869839012344 0.2185776090074074-0.12054869839012344 0.19208229420246914-0.13247139587160495 0.19208229420246914-0.12054869839012344 0.2212262343111111-0.12187301104197532 0.19075798155061727-0.11922438573827158 0.2172520018172839-0.12452293088395061 0.1695625064296296-0.07153489035061729 0.07285920300246912 0 0.16691388112592592-0.1695625064296296 0.24639594192592593-0.08610621313580247 0.07020928316049382-0.08213198064197531 0.1695625064296296 0 0.16823819377777777-0.12054869839012344 0.4331796909827161-0.1934079013925926 0.21990192165925926-0.12187301104197532 0.2397717895901234-0.1337957085234568 0.1934079013925926-0.08213198064197531 0.2185776090074074-0.07550782830617282 0.16823819377777777-0.08345629329382716 0.07285920300246912 0 0.2397717895901234-0.1337957085234568 0.1934079013925926-0.07153489035061729 0.09802891061728396-0.050339415229629626 0.11922438573827158-0.03576679790617284 0.24507162927407405-0.08345629329382716 0.2410973967802469-0.12319732369382715 0.2410973967802469-0.07285920300246912 0.2172520018172839-0.08345629329382716 0.1443927988148148 0 0.09537899077530863-0.08345629329382716 0.1934079013925926-0.04636518273580247 0.24374602208395063-0.07285920300246912 0.09405467812345679-0.04901380803950617 0.16823819377777777-0.03576679790617284 0.2424217094320987-0.03576679790617284 0.1934079013925926-0.08345629329382716 0.04901380803950617 0 0.19208229420246914-0.08345629329382716 0.24374602208395063-0.07285920300246912 0.21460337651358025 0 0-0.050339415229629626 0.2410973967802469-0.03444248525432099 0.24507162927407405-0.08345629329382716 0.16691388112592592 0 0.07285920300246912-0.050339415229629626 0.24374602208395063-0.07285920300246912 0.26229287190123457-0.04636518273580247 0.07285920300246912 0 0.17221242627160493-0.03444248525432099 0.2410973967802469-0.03576679790617284 0.2397717895901234-0.08743052578765431 0.24374602208395063 0 0.2397717895901234-0.03444248525432099 0.17353673892345678-0.04901380803950617 0.07020928316049382 0 0.2424217094320987-0.03576679790617284 0.26494149720493826-0.03444248525432099 0.07285920300246912 0 0.16691388112592592-0.04901380803950617 0.2410973967802469-0.04636518273580247 0.2424217094320987 0 0.07683343549629629 0 0.16426396128395063-0.025169707614814813 0.2927611246617284 0 0.1934079013925926-0.04901380803950617 0.050339415229629626 0 0.2874612849777778 0 0.2397717895901234 0 0.12319732369382715 0 0.12054869839012344 0 0.2424217094320987-0.04768949538765432 0.2410973967802469-0.03576679790617284 0.09405467812345679 0 0.17353673892345678 0 0.4821934990222222 0 0.5510784695308641 0 0.17353673892345678 0 0.09405467812345679 0 0.2410973967802469 0.03576679790617284 0.2424217094320987 0.04768949538765432 0.12054869839012344 0 0.12319732369382715 0 0.2874612849777778 0 0.2424217094320987 0 0.04768949538765432 0 0.1934079013925926 0.04901380803950617 0.2927611246617284 0 0.1934079013925926 0.025169707614814813 0.29011120481975305 0 0.2410973967802469 0.04636518273580247 0.12187301104197532 0.04901380803950617 0.11789877854814813 0 0.26494149720493826 0.03444248525432099 0.24639594192592593 0.03576679790617284 0.07285920300246912 0 0.16691388112592592 0.04901380803950617 0.2397717895901234 0.03444248525432099 0.24374602208395063 0 0.2397717895901234 0.08743052578765431 0.2410973967802469 0.03576679790617284 0.17221242627160493 0.03444248525432099 0.07285920300246912 0 0.26229287190123457 0.04636518273580247 0.24374602208395063 0.07285920300246912 0.07285920300246912 0.050339415229629626 0.16691388112592592 0 0.24639594192592593 0.08345629329382716 0.18943366889876542 0.03444248525432099 0.050339415229629626 0.050339415229629626 0.2172520018172839 0 0.2410973967802469 0.07285920300246912 0.19208229420246914 0.08345629329382716 0.24374602208395063 0.08345629329382716 0.2424217094320987 0.03576679790617284 0.16823819377777777 0.03576679790617284 0.09405467812345679 0.04901380803950617 0.2424217094320987 0.07285920300246912 0.19473221404444446 0.04636518273580247 0.09802891061728396 0.08345629329382716 0.1417441735111111 0 0.2172520018172839 0.08345629329382716 0.2397717895901234 0.07285920300246912 0.24374602208395063 0.12319732369382715 0.1934079013925926 0.08345629329382716 0.1695625064296296 0.03576679790617284 0.09802891061728396 0.050339415229629626 0.19208229420246914 0.07153489035061729 0.2410973967802469 0.1337957085234568 0.07285920300246912 0 0.1443927988148148 0.08345629329382716 0.19473221404444446 0.07550782830617282 0.2397717895901234 0.08213198064197531 0.24374602208395063 0.1337957085234568 0.2172520018172839 0.12187301104197532 0.4318553783308642 0.1934079013925926 0.2172520018172839 0.12054869839012344 0.12054869839012344 0 0.07550782830617282 0.08213198064197531 0.2172520018172839 0.08610621313580247 0.19075798155061727 0.1695625064296296 0.07285920300246912 0 0.1443927988148148 0.07153489035061729 0.24374602208395063 0.12452293088395061 0.18943366889876542 0.11922438573827158 0.21990192165925926 0.12187301104197532 0.1934079013925926 0.12054869839012344 0.19473221404444446 0.13247139587160495 0.21460337651358025 0.12054869839012344 0.1934079013925926 0.12054869839012344 0.09670330342716049 0.08345629329382716 0.12319732369382715 0.03576679790617284 0.19075798155061727 0.1695625064296296 349.7112639816691 189.93943076156046c8.92721359328395 4.85108410848395 13.996875310775307 14.04853903865679 13.996875310775307 23.55597633611852l0.12054869839012344 0L890.6886112546765 626.0309647056592C890.6554930820741 637.4976455465086 883.510013355299 647.2355818559209 873.4952128511999 651.1461230667851zM523.0381381859555 767.1800376787753l76.10055983913087-38.232427279802465L305.95144502234075 577.4936257169384l-86.23855896146172 46.83641279020246L523.0381381859555 767.1800376787753zM485.04813261558513 16.256796565807463L187.22572189898267 178.01701726941235 187.22572189898267 580.8371915282963l90.81410318791112-49.32289199723457 0-89.08535865647406 67.37602692487901-31.52277586931358 0 84.05411365673085 139.63228060381235-75.84621543221729L485.04813261558513 16.256796565807463zM511.96224608584697 465.57558291468644L377.3227937640296 538.6942230376296 673.3581707744396 691.6583746420938l132.38612204657775-66.55603143111111L511.96224608584697 465.57558291468644z"  horiz-adv-x="1024" />

    
    <glyph glyph-name="caozuoyanshi" unicode="&#58890;" d="M510.86-64.557c-246.153 0.617-448.929 205.226-447.407 451.373 1.519 245.851 201.849 445.435 447.98 445.742 14.83 0.018 27.538-11.292 28.538-26.087 1.106-16.368-11.847-29.983-27.969-29.983-215.775 0-391.437-175.017-392.483-390.551-1.054-216.832 175.572-394.383 392.407-394.425 216.288-0.041 392.306 175.792 392.564 392.012 0.017 14.213 11.63 27.326 25.801 28.423 16.485 1.278 30.27-11.722 30.27-27.949 0-247.711-201.846-449.177-449.697-448.557zM727.708 222.983l-189.621 189.621v268.303c0 14.341-11.655 27.505-25.961 28.533-16.42 1.181-30.109-11.791-30.109-27.959v-280.349c0-0.032 0.010-0.061 0.010-0.092-0.001-0.067 0.019-0.132 0.020-0.198 0.035-3.426 0.73-6.678 1.889-9.705 0.117-0.309 0.164-0.626 0.292-0.932 1.319-3.114 3.231-5.901 5.524-8.318 0.204-0.217 0.263-0.507 0.477-0.719l198.237-198.236c11.434-11.434 30.283-10.927 41.060 1.518 9.389 10.842 8.324 28.393-1.817 38.533zM681.377 742.611v0c-15.483 0-28.036 12.551-28.036 28.034v0c0 15.483 12.551 28.034 28.034 28.034v0c15.483 0 28.036-12.551 28.036-28.034v0c0-15.482-12.551-28.034-28.034-28.034zM802.083 658.508v0c-15.483 0-28.036 12.551-28.036 28.034v0c0 15.483 12.551 28.034 28.034 28.034v0c15.483 0 28.036-12.551 28.036-28.034v0c0.001-15.483-12.551-28.034-28.034-28.034zM893.974 524.564v0c-15.483 0-28.036 12.551-28.036 28.034v0c0 15.483 12.551 28.034 28.036 28.034v0c15.483 0 28.036-12.551 28.036-28.034v0c-0.001-15.483-12.554-28.034-28.036-28.034z"  horiz-adv-x="1024" />

    
    <glyph glyph-name="chexiao" unicode="&#58891;" d="M511.27 892.272c-161.66 0-303.553-84.56-383.915-211.849v142.044h-69.803v-279.21h279.21v69.804h-167.521c63.546 124.301 192.842 209.406 342.030 209.406 212.029 0 383.915-171.884 383.915-383.914s-171.886-383.914-383.915-383.914c-161.025 0-298.893 99.138-355.905 239.707l-64.345-27.13c67.602-165.645 230.293-282.379 420.25-282.379 250.58 0 453.716 203.134 453.716 453.714s-203.135 453.717-453.716 453.717v0z"  horiz-adv-x="1024" />

    
    <glyph glyph-name="yiguoqi" unicode="&#58903;" d="M195.2-37.44l704 0 0-42.666667-704 0 0 42.666667ZM195.2 832l0-42.666667 75.882667 0 0-173.077333c0-91.605333 41.728-178.325333 112.896-237.248-71.168-58.88-112.896-145.6-112.896-237.226667l0-179.072 42.666667 0 0 179.072c0 87.146667 44.010667 169.258667 117.717333 219.626667l25.770667 17.6-25.770667 17.6c-73.706667 50.389333-117.717333 132.501333-117.717333 219.626667L313.749333 789.333333l466.901333 0 0-173.077333c0-87.125333-44.010667-169.237333-117.738667-219.605333l-25.770667-17.6 25.770667-17.6c73.706667-50.410667 117.738667-132.501333 117.738667-219.626667l0-179.093333 42.666667 0 0 179.093333c0 91.605333-41.728 178.304-112.917333 237.226667 71.189333 58.88 112.917333 145.6 112.917333 237.226667L823.317333 789.333333l75.882667 0L899.2 832 195.2 832z"  horiz-adv-x="1024" />

    
    <glyph glyph-name="zhuxiaoyonghu" unicode="&#59070;" d="M771.985 578.793l-62.803-62.803 85.020-85.020h-381.158v-88.83h381.158l-85.020-85.020 62.803-62.803 188.42 188.42-3.779 3.779 3.779 3.779-188.42 188.42zM612.809 75.775v177.586h-88.83v-155.39l-355.198-66.587v710.366l355.198-66.587v-133.228h88.83v199.808l-421.774 88.83c-61.292 0-110.998-49.788-110.998-110.998v-665.969c0-61.292 49.788-110.998 110.998-110.998l421.774 88.83v44.407z"  horiz-adv-x="1024" />

    
    <glyph glyph-name="sousuo-sousuo" unicode="&#58888;" d="M716.6003 682.199377c-138.851102 138.915088-364.020238 138.915088-502.935326 0s-138.915088-364.084225 0-502.935326a355.573996 355.573996 0 0 1 502.935326 0 355.573996 355.573996 0 0 1 0 502.935326z m-580.359212-580.359212a465.183184 465.183184 0 1 0 657.783099 0 465.183184 465.183184 0 0 0-657.783099 0z m868.939152-211.156054a63.474789 63.474789 0 0 0-89.837303 0l-89.773316 89.837303a63.410803 63.410803 0 1 0 89.773316 89.773316l89.837303-89.773316a63.346816 63.346816 0 0 0 0-89.837303z"  horiz-adv-x="1024" />

    
    <glyph glyph-name="rizhi" unicode="&#58892;" d="M89.6 473.6v-172.8c0-19.2 12.8-32 25.6-32s25.6 12.8 25.6 32V473.6c0 19.2-12.8 32-25.6 32s-25.6-12.8-25.6-32z m-64 57.6H192c12.8 0 25.6 12.8 25.6 32s-6.4 32-25.6 32H25.6c-12.8 0-25.6-19.2-25.6-32s12.8-32 25.6-32z m198.4-320c0 19.2-12.8 32-25.6 32H25.6c-12.8 0-25.6-12.8-25.6-32s12.8-32 25.6-32H192c19.2 0 32 12.8 32 32z m128 320h339.2c12.8 0 25.6 12.8 25.6 32s-12.8 32-25.6 32H352c-12.8 0-25.6-19.2-25.6-32s12.8-32 25.6-32z m0-172.8h339.2c12.8 0 25.6 12.8 25.6 32s-12.8 32-25.6 32H352c-12.8-6.4-25.6-19.2-25.6-38.4 0-12.8 12.8-25.6 25.6-25.6z m0-179.2h339.2c12.8 0 25.6 12.8 25.6 32s-12.8 32-25.6 32H352c-12.8 0-25.6-12.8-25.6-32s12.8-32 25.6-32z m582.4 320v192c0 76.8-57.6 140.8-134.4 140.8h-576C147.2 832 89.6 768 89.6 691.2v-38.4c0-19.2 12.8-32 25.6-32s25.6 12.8 25.6 32v38.4c0 44.8 32 83.2 76.8 83.2h582.4c44.8 0 76.8-38.4 76.8-83.2v-198.4c-44.8-12.8-76.8-57.6-76.8-108.8 0-51.2 32-96 76.8-115.2v-192c0-44.8-32-83.2-76.8-83.2h-576c-44.8 0-76.8 38.4-76.8 83.2v44.8c0 19.2-12.8 32-25.6 32s-25.6-12.8-25.6-32v-44.8c-6.4-76.8 51.2-140.8 128-140.8h582.4c76.8 0 134.4 64 134.4 140.8v192c44.8 12.8 83.2 57.6 83.2 115.2s-38.4 102.4-89.6 115.2z m-19.2-172.8c-32 0-57.6 25.6-57.6 57.6s25.6 57.6 57.6 57.6 57.6-25.6 57.6-57.6c-6.4-32-32-57.6-57.6-57.6z"  horiz-adv-x="1024" />

    
    <glyph glyph-name="tongguorenzheng" unicode="&#58924;" d="M947.709531 752.197082a74.444378 74.444378 0 0 1-52.906367 17.06657c-0.989861-0.034133-12.253797-0.682663-30.00303-0.682663-29.320367 0-86.595776 1.809056-140.799202 13.960454-70.075336 15.667111-150.902612 88.336566-174.420345 102.672485A75.775571 75.775571 0 0 1 510.395742 896c-13.58499 0-27.238246-3.618113-39.116578-10.751939-2.833051-1.774923-87.483238-84.172323-170.256102-102.706618-54.203426-12.151398-112.571095-13.960454-141.857329-13.960454-17.7151 0-29.013169 0.64853-30.139563 0.682663a74.717443 74.717443 0 0 1-52.769834-17.134837 61.576184 61.576184 0 0 1-22.357207-46.830668v-160.289225c0-592.687841 425.981586-669.043675 444.07215-672.013258a76.321701 76.321701 0 0 1 24.883059 0c18.056431 2.969583 447.246532 79.291284 447.246533 672.013258V705.298147c0 17.817499-8.123687 34.747536-22.39134 46.898935z m-48.059461-207.18816c0-545.891307-389.254328-608.901083-389.254328-608.901083S124.315797-0.882384 124.315797 545.008922V705.298147s13.346058-0.819195 34.849936-0.819195c36.932057 0 99.088505 2.457586 158.616701 15.769511 97.518381 21.811076 192.613309 111.649501 192.613308 111.6495s99.327437-89.838424 196.777552-111.6495c59.630595-13.346058 120.694783-15.769511 157.62684-15.769511 21.503878 0 34.849936 0.819195 34.849936 0.819195v-160.289225z m-170.256102 33.177412l-272.86032-248.352726-135.269634 123.186502a46.079739 46.079739 0 0 1-60.859388 0 36.693125 36.693125 0 0 1 0-55.398086l157.831639-143.700519c1.84319-2.901317 4.13011-5.666101 6.860761-8.15782 8.669818-7.850622 20.104419-11.707667 31.436622-11.434602 11.366336-0.273065 22.835071 3.549847 31.504888 11.434602 2.764784 2.491719 4.983438 5.256504 6.860761 8.15782l295.319926 268.866743a36.761392 36.761392 0 0 1 0 55.398086 45.977339 45.977339 0 0 1-60.825255 0z"  horiz-adv-x="1024" />

    
    <glyph glyph-name="biaoshilei_yonghuzu" unicode="&#58907;" d="M558.4 293.568c88.128 49.28 148.288 142.336 148.288 250.368a288 288 0 1 1-576 0.064c0-107.2 59.328-199.616 146.24-249.216C115.84 242.176 0 101.44 0-64h64c0 174.848 157.888 317.12 351.936 317.12C610.048 253.12 768 110.848 768-64h64c0 164.224-114.24 304.128-273.6 357.568zM194.688 544c0 123.52 100.48 224 223.936 224s224.064-100.48 224.064-224S542.208 320 418.624 320a224.256 224.256 0 0 0-223.936 224zM1024 128h-64a254.848 254.848 0 0 1-233.6 253.952 354.56 354.56 0 0 1 30.848 77.312 127.936 127.936 0 0 1-22.016 240.384 350.08 350.08 0 0 1-42.944 67.136c3.968 0.256 7.68 1.216 11.712 1.216 105.856 0 192-86.144 192-192 0-61.12-28.672-115.584-73.28-150.784A320.64 320.64 0 0 0 1024 128z"  horiz-adv-x="1024" />

    
    <glyph glyph-name="daochu1" unicode="&#58908;" d="M516.394 793.301c10.469 0 19.289-3.592 26.453-10.744L728.91 596.494c7.164-7.164 10.744-15.98 10.744-26.452 0-10.668-3.537-19.532-10.6-26.6-7.072-7.076-15.938-10.608-26.598-10.608-10.475 0-19.299 3.584-26.459 10.748l-122.381 122.68v-431.126c0-10.266-3.635-19.041-10.902-26.316-7.277-7.271-16.049-10.908-26.316-10.908-10.281 0-19.049 3.637-26.32 10.908-7.276 7.275-10.92 16.051-10.92 26.316V666.262l-122.364-122.68c-7.56-7.168-16.376-10.748-26.464-10.748-10.28 0-19.04 3.64-26.316 10.908-7.276 7.272-10.916 16.052-10.916 26.32 0 10.084 3.576 18.908 10.744 26.456l186.061 186.063c7.16 7.168 15.992 10.744 26.457 10.744l0.034-0.024z m367.71-520.935c10.264 0 19.045-3.639 26.309-10.912 7.268-7.275 10.912-16.051 10.912-26.328v-148.818c0-31.018-10.748-57.277-32.264-78.793-21.896-21.889-48.064-32.84-78.492-32.84H214.303c-30.417 0-56.772 10.855-79.06 32.568-21.716 22.287-32.568 48.643-32.568 79.064V235.126c0 10.285 3.634 19.053 10.908 26.328 7.276 7.273 16.049 10.912 26.321 10.912 10.266 0 19.04-3.639 26.316-10.912 7.273-7.275 10.908-16.051 10.908-26.328v-148.818c0-10.27 3.634-19.049 10.914-26.324 7.274-7.273 16.042-10.896 26.318-10.896h596.256c10.076 0 18.656 3.623 25.729 10.896 7.072 7.275 10.611 16.055 10.611 26.324V235.126c0 10.285 3.637 19.053 10.908 26.328 7.277 7.273 16.045 10.912 26.313 10.912h-0.073z"  horiz-adv-x="1024" />

    
    <glyph glyph-name="guanliyuan" unicode="&#59199;" d="M523.84 266.176c-168 0-304.704 133.632-304.704 297.984s136.704 297.984 304.64 297.984 304.768-133.76 304.768-297.984-136.64-297.984-304.704-297.984z m0 531.968c-132.736 0-240.704-104.96-240.704-233.984s108.032-233.984 240.64-233.984 240.768 104.96 240.768 233.984-107.968 233.984-240.704 233.984zM919.68-64.128a395.968 395.968 0 0 1-256.832 369.536 308.48 308.48 0 0 0-141.312-33.92 309.248 309.248 0 0 0-139.328 32.896 396.032 396.032 0 0 1-254.208-369.6v-0.832c0-17.728 14.592-32.128 32.576-32.128a32.384 32.384 0 0 1 32 38.016 331.392 331.392 0 0 0 662.656-0.256 32.384 32.384 0 0 1 32.064-37.696 32.384 32.384 0 0 1 32.576 32.128l-0.128 1.856zM550.912 204.352a58.24 58.24 0 0 1 13.504 10.112l13.504 13.504c22.784 22.784 14.72 41.152-18.048 40.96l-72.256-0.512c-32.832-0.192-40.64-19.136-17.536-42.24l11.072-11.136a60.48 60.48 0 0 1 16.832-11.968c0-0.128-0.128-0.192-0.192-0.32l-11.968-21.888-11.968-21.888a41.216 41.216 0 0 1-5.696-26.24 59.264 59.264 0 0 1-0.32-37.568l35.072-119.04c11.264-38.336 29.568-38.4 41.088-1.088l37.76 122.24a55.296 55.296 0 0 1-1.088 38.848 42.688 42.688 0 0 1-5.888 23.872l-22.976 42.88a19.072 19.072 0 0 1-0.896 1.472z"  horiz-adv-x="1024" />

    
    <glyph glyph-name="chakan" unicode="&#58899;" d="M1020.0576 322.935467C901.2736 173.1584 718.045867 76.8 512.0512 76.8 306.056533 76.8 122.8288 173.1584 4.0448 322.935467c1.911467 3.447467 4.4032 6.485333 6.382933 9.864533-1.979733 3.3792-4.471467 6.417067-6.382933 9.864533a651.537067 651.537067 0 0 0 253.098667 193.877334L209.9712 607.914667a17.885867 17.885867 0 0 0 3.822933 23.893333l26.146134 19.797333a15.36 15.36 0 0 0 22.3232-4.096l58.0608-87.790933a645.358933 645.358933 0 0 0 157.5936 28.091733V674.133333a17.066667 17.066667 0 0 0 17.066666 17.066667h34.133334a17.066667 17.066667 0 0 0 17.066666-17.066667v-86.3232c53.691733-2.798933 105.642667-12.151467 155.067734-27.272533l61.303466 86.6304a17.066667 17.066667 0 0 0 23.790934 4.096l27.8528-19.729067a17.066667 17.066667 0 0 0 4.061866-23.790933l-50.5856-71.509333a651.9808 651.9808 0 0 0 252.381867-193.570134c-1.911467-3.447467-4.4032-6.485333-6.382933-9.864533 1.979733-3.3792 4.471467-6.417067 6.382933-9.864533zM512.0512 520.533333c-168.891733 0-320.546133-72.465067-426.496-187.733333C191.505067 217.531733 343.159467 145.066667 512.0512 145.066667c168.891733 0 320.546133 72.465067 426.496 187.733333-105.949867 115.268267-257.604267 187.733333-426.496 187.733333z m-17.066667-307.2a119.466667 119.466667 0 1 0 0 238.933334 119.466667 119.466667 0 0 0 0-238.933334z m0 170.666667a51.2 51.2 0 1 1 0.034134-102.434133A51.2 51.2 0 0 1 494.984533 384z"  horiz-adv-x="1024" />

    
    <glyph glyph-name="iconfuzhi-copy" unicode="&#59200;" d="M431.959 598.6510000000001c32.287 33.529 64.583 67.068 96.869 100.595 25.655 31.759 64.757 56.032 85.692 91.902-14.046 17.262-143.667 38.906-178.836 38.499-12.833-4.14-25.668-8.279-38.499-12.418999999999999-29.159-17.154-80.977-75.714-103.078-103.078-18.627-19.041-37.259-38.087-55.887-57.127l-28.564-28.564c95.159 0.802 152.348 3.662 222.303-29.805zM588.442 706.698c-0.414-2.07-0.83-4.14-1.242-6.21v-1.242c12.201-7.155 33.494-7.987 49.677-11.178 3.161-4.234 4.981-4.414 6.21-11.178-38.909-40.151-77.83-80.315-116.74-120.466-8.709-10.784-22.233-17.847-28.564-31.049-0.83-0.83-1.655-1.655-2.484-2.484 14.074-5.795 28.15-11.593 42.224-17.387 39.09-22.634 91.18-55.659 104.32199999999999-103.078 16.144 7.683999999999999 32.40299999999999 31.028 43.468 44.709 25.434 31.451 57.572 57.613 83.21 89.418 11.23 13.931999999999999 32.442 27.997 37.258 47.193 8.374 33.37899999999999-14.73 54.101-29.805 65.822-40.158 31.22-94.813 70.167-163.932 69.547-10.615-4.513-17.188-4.137-23.597-12.418999999999999zM238.22199999999998 288.173v6.21c-16.558 3.311-33.12 6.624-49.677 9.935-1.655 2.069-3.312 4.141-4.966999999999999 6.21 3.293 20.495 35.574 40.881 48.435 54.644 38.909 43.05 77.83 86.111 116.74 129.159 11.012 11.507 57.392 51.472 49.677 72.032-10.944 28.62-146.455 29.492-193.739 28.564-42.721-18.097-75.681-59.271-103.078-93.145-21.938-23.18-43.884-46.367-65.822-69.547-11.633-15.987999999999998-24.418-49.412-8.693-70.789 21.627-29.399 103.146-69.463 142.819-81.967 19.748-6.223 61.373999999999995-13.653 68.305 8.693zM973.435 453.346c-43.985 33.184-91.712 62.041-161.45 69.547-12.540999999999999-4.733-21.779-2.081-27.322999999999997-13.66v-8.693c14.285999999999998-3.088 55.55-4.24 53.402-19.871-7.052-16.796-32.039-32.039-44.709-44.709-34.356-34.77-68.72299999999998-69.549-103.078-104.32199999999999 1.191-5.484 52.205-26.939 62.095-33.532 42.947-28.624 51.586-48.479 74.514-96.869v-2.484c12.418 11.589 24.837999999999997 23.184 37.258 34.774 34.754 28.042 70.043 62.138999999999996 98.111 96.869 14.614 18.085 38.395 35.309 43.468 62.095 5.908 31.199-17.027 49.339-32.29 60.854zM439.412 187.57799999999997c34.356 35.598 68.72299999999998 71.205 103.078 106.804 16.17 19.983 42.421 34.879 50.919 62.095 10.169999999999998 32.573-11.513 55.813-28.564 69.547-39.708 31.98-83.952 71.69-155.239 70.789-10.319-4.533-17.053-5.69-24.837-11.178-0.414-1.242-0.83-2.484-1.242-3.7259999999999995 0.789-4.966999999999999-0.097-3.696 2.484-6.21 11.974-9.454 54.577-1.935 52.16-21.113-9.641-22.589-42.558-43.678-59.613-60.854-41.393-43.465-82.798-86.94-124.192-130.401-11.582-11.691-61.292-53.476-53.402-74.514 9.536-25.149 112.784-36.791 146.546-43.468 14.423-2.85 39.557-5.506 50.919 1.242 13.659 13.66 27.324 27.325 40.982 40.982zM764.794 228.55999999999995c-36.159 36.001-89.289 76.69799999999998-160.206 75.757-13.299-5.021-24.278-3.019-24.837-21.113 18.561-6.883 47.387-3.418 55.887-21.113-11.711-21.639-37.697-38.569-54.644-55.887-43.462-45.946-86.939-91.907-130.401-137.852-11.395-14.093-62.812-49.822-53.402-74.514 8.946-23.283 110.346-38.883 142.819-44.709h47.193c18.94 7.846 30.651000000000003 31.123999999999995 45.95 43.468 29.857 24.091 147.113 136.006 156.482 168.901 9.297 32.642-10.779999999999998 53.065-24.837 67.065z"  horiz-adv-x="1024" />

    
    <glyph glyph-name="iconfuzhi-copy-copy" unicode="&#59201;" d="M431.959 598.6510000000001c32.287 33.529 64.583 67.068 96.869 100.595 25.655 31.759 64.757 56.032 85.692 91.902-14.046 17.262-143.667 38.906-178.836 38.499-12.833-4.14-25.668-8.279-38.499-12.418999999999999-29.159-17.154-80.977-75.714-103.078-103.078-18.627-19.041-37.259-38.087-55.887-57.127l-28.564-28.564c95.159 0.802 152.348 3.662 222.303-29.805zM588.442 706.698c-0.414-2.07-0.83-4.14-1.242-6.21v-1.242c12.201-7.155 33.494-7.987 49.677-11.178 3.161-4.234 4.981-4.414 6.21-11.178-38.909-40.151-77.83-80.315-116.74-120.466-8.709-10.784-22.233-17.847-28.564-31.049-0.83-0.83-1.655-1.655-2.484-2.484 14.074-5.795 28.15-11.593 42.224-17.387 39.09-22.634 91.18-55.659 104.32199999999999-103.078 16.144 7.683999999999999 32.40299999999999 31.028 43.468 44.709 25.434 31.451 57.572 57.613 83.21 89.418 11.23 13.931999999999999 32.442 27.997 37.258 47.193 8.374 33.37899999999999-14.73 54.101-29.805 65.822-40.158 31.22-94.813 70.167-163.932 69.547-10.615-4.513-17.188-4.137-23.597-12.418999999999999zM238.22199999999998 288.173v6.21c-16.558 3.311-33.12 6.624-49.677 9.935-1.655 2.069-3.312 4.141-4.966999999999999 6.21 3.293 20.495 35.574 40.881 48.435 54.644 38.909 43.05 77.83 86.111 116.74 129.159 11.012 11.507 57.392 51.472 49.677 72.032-10.944 28.62-146.455 29.492-193.739 28.564-42.721-18.097-75.681-59.271-103.078-93.145-21.938-23.18-43.884-46.367-65.822-69.547-11.633-15.987999999999998-24.418-49.412-8.693-70.789 21.627-29.399 103.146-69.463 142.819-81.967 19.748-6.223 61.373999999999995-13.653 68.305 8.693zM973.435 453.346c-43.985 33.184-91.712 62.041-161.45 69.547-12.540999999999999-4.733-21.779-2.081-27.322999999999997-13.66v-8.693c14.285999999999998-3.088 55.55-4.24 53.402-19.871-7.052-16.796-32.039-32.039-44.709-44.709-34.356-34.77-68.72299999999998-69.549-103.078-104.32199999999999 1.191-5.484 52.205-26.939 62.095-33.532 42.947-28.624 51.586-48.479 74.514-96.869v-2.484c12.418 11.589 24.837999999999997 23.184 37.258 34.774 34.754 28.042 70.043 62.138999999999996 98.111 96.869 14.614 18.085 38.395 35.309 43.468 62.095 5.908 31.199-17.027 49.339-32.29 60.854zM439.412 187.57799999999997c34.356 35.598 68.72299999999998 71.205 103.078 106.804 16.17 19.983 42.421 34.879 50.919 62.095 10.169999999999998 32.573-11.513 55.813-28.564 69.547-39.708 31.98-83.952 71.69-155.239 70.789-10.319-4.533-17.053-5.69-24.837-11.178-0.414-1.242-0.83-2.484-1.242-3.7259999999999995 0.789-4.966999999999999-0.097-3.696 2.484-6.21 11.974-9.454 54.577-1.935 52.16-21.113-9.641-22.589-42.558-43.678-59.613-60.854-41.393-43.465-82.798-86.94-124.192-130.401-11.582-11.691-61.292-53.476-53.402-74.514 9.536-25.149 112.784-36.791 146.546-43.468 14.423-2.85 39.557-5.506 50.919 1.242 13.659 13.66 27.324 27.325 40.982 40.982zM764.794 228.55999999999995c-36.159 36.001-89.289 76.69799999999998-160.206 75.757-13.299-5.021-24.278-3.019-24.837-21.113 18.561-6.883 47.387-3.418 55.887-21.113-11.711-21.639-37.697-38.569-54.644-55.887-43.462-45.946-86.939-91.907-130.401-137.852-11.395-14.093-62.812-49.822-53.402-74.514 8.946-23.283 110.346-38.883 142.819-44.709h47.193c18.94 7.846 30.651000000000003 31.123999999999995 45.95 43.468 29.857 24.091 147.113 136.006 156.482 168.901 9.297 32.642-10.779999999999998 53.065-24.837 67.065z"  horiz-adv-x="1024" />

    
    <glyph glyph-name="baozhengjinkouchu" unicode="&#58931;" d="M1024 250.88c0-169.65632-137.54368-307.2-307.2-307.2-117.9648 0-220.2624 66.56-271.72864 164.10624-5.0176-0.08192-9.9328-0.26624-14.99136-0.26624-192.28672 0-348.16 55.00928-348.16 122.88v81.92c0 0.9216 0.3072 1.76128 0.36864 2.6624a1.14688 1.14688 0 0 0 0.24576-0.08192C31.1296 336.32256 0 363.97056 0 394.24v81.92c0 7.31136 2.06848 14.06976 5.4272 20.00896C2.08896 502.9888 0 509.97248 0 517.12c0 30.08512 31.04768 57.50784 81.92 78.848V660.48c0 7.31136 2.06848 14.06976 5.4272 20.00896C84.00896 687.3088 81.92 694.29248 81.92 701.44c0 67.87072 155.87328 122.88 348.16 122.88s348.16-55.00928 348.16-122.88c0-7.14752-2.08896-14.1312-5.4272-20.95104 3.35872-5.9392 5.4272-12.6976 5.4272-20.00896v-81.92c0-8.74496-2.8672-17.24416-7.82336-25.45664C914.47296 527.70816 1024 402.20672 1024 250.88zM122.88 240.64c0-3.60448 0.73728-7.02464 1.88416-10.24H122.88c0-44.99456 136.13056-81.5104 304.55808-81.87904a305.41824 305.41824 0 0 0-14.86848 61.82912C287.0272 212.5824 178.87232 238.01856 122.88 275.00544V240.64z m287.86688 32.72704c-20.31616-1.31072-41.20576-2.00704-62.58688-2.00704-64.12288 0-123.98592 6.22592-175.57504 16.896l0.14336-0.04096c51.24096-21.01248 137.58464-35.2256 236.89216-36.98688 0 7.4752 0.57344 14.80704 1.1264 22.13888zM40.96 404.48c0-3.60448 0.73728-7.02464 1.88416-10.24H40.96c0-45.24032 137.54368-81.92 307.2-81.92 23.42912 0 46.16192 0.75776 68.096 2.08896 6.36928 30.24896 17.2032 58.83904 31.744 85.0944A947.6096 947.6096 0 0 0 348.16 394.24c-131.13344 0-245.248 25.62048-304.59904 63.42656-1.6384-3.76832-2.60096-7.86432-2.60096-12.22656v-40.96z m45.42464 155.3408C57.7536 547.38944 40.96 532.7872 40.96 517.12c0-3.42016 1.00352-6.7584 2.56-10.05568 0.36864-0.83968 0.94208-1.65888 1.41312-2.49856 1.57696-2.68288 3.54304-5.30432 6.06208-7.8848 0.57344-0.59392 1.08544-1.18784 1.69984-1.78176 7.0656-6.61504 17.03936-12.9024 29.696-18.7392 53.1456-24.45312 152.12544-40.96 265.76896-40.96 46.36672 0 89.9072 2.88768 129.14688 7.82336 4.096 5.09952 8.47872 9.91232 12.86144 14.72512-19.57888-1.20832-39.50592-2.06848-60.08832-2.06848-174.20288 0-318.09536 45.19936-343.69536 104.1408zM430.08 783.36c-169.65632 0-307.2-36.67968-307.2-81.92 0-3.42016 1.00352-6.7584 2.56-10.05568 0.36864-0.83968 0.94208-1.65888 1.41312-2.49856 1.57696-2.6624 3.54304-5.30432 6.06208-7.8848 0.57344-0.59392 1.08544-1.18784 1.69984-1.78176 7.0656-6.59456 17.01888-12.9024 29.67552-18.71872C217.41568 636.02688 316.416 619.52 430.08 619.52c113.64352 0 212.64384 16.50688 265.78944 40.96 12.65664 5.8368 22.60992 12.14464 29.67552 18.75968 0.6144 0.57344 1.1264 1.16736 1.69984 1.7408 2.51904 2.60096 4.48512 5.24288 6.06208 7.90528 0.47104 0.83968 1.04448 1.65888 1.41312 2.49856 1.55648 3.29728 2.56 6.63552 2.56 10.05568 0 45.24032-137.54368 81.92-307.2 81.92zM737.28 588.8v40.96c0 4.36224-0.96256 8.45824-2.58048 12.22656C675.328 604.18048 561.21344 578.56 430.08 578.56c-131.13344 0-245.248 25.62048-304.59904 63.42656-1.6384-3.76832-2.60096-7.86432-2.60096-12.22656v-40.96c0-3.60448 0.73728-7.02464 1.88416-10.24H122.88c0-45.24032 137.54368-81.92 307.2-81.92a1084.6208 1084.6208 0 0 1 110.36672 5.5296A305.41824 305.41824 0 0 0 716.8 558.08c3.35872 0 6.59456-0.38912 9.9328-0.49152 6.656 6.69696 10.5472 13.70112 10.5472 20.97152h-1.88416c1.14688 3.21536 1.88416 6.63552 1.88416 10.24z m-20.48-71.68c-147.0464 0-266.24-119.1936-266.24-266.24s119.1936-266.24 266.24-266.24 266.24 119.1936 266.24 266.24-119.1936 266.24-266.24 266.24z m153.6-286.72h-307.2a10.24 10.24 0 0 0-10.24 10.24v20.48a10.24 10.24 0 0 0 10.24 10.24h307.2a10.24 10.24 0 0 0 10.24-10.24v-20.48a10.24 10.24 0 0 0-10.24-10.24z"  horiz-adv-x="1024" />

    


  </font>
</defs>
</svg>
